<?xml version="1.0" encoding="iso-8859-1"?>
<!-- Uploaded to: SVG Repo, www.svgrepo.com, Generator: SVG Repo Mixer Tools -->
<svg height="800px" width="800px" version="1.1" id="Layer_1" xmlns="http://www.w3.org/2000/svg" xmlns:xlink="http://www.w3.org/1999/xlink" 
	 viewBox="0 0 512 512" xml:space="preserve">
<path style="fill:#847C7C;" d="M481.455,206.615h-36.934c-8.523,0-16.054-5.377-19.016-13.369
	c-1.624-4.379-3.413-8.676-5.359-12.888c-3.563-7.712-1.823-16.841,4.184-22.848l26.011-26.011c7.945-7.945,7.945-20.828,0-28.773
	l-41.067-41.067c-7.945-7.945-20.828-7.945-28.773,0L354.49,87.67c-6.006,6.006-15.137,7.747-22.847,4.184
	c-4.211-1.946-8.509-3.735-12.888-5.358c-7.992-2.964-13.369-10.493-13.369-19.016V30.545c0-11.236-9.109-20.345-20.345-20.345
	h-58.078c-11.236,0-20.345,9.109-20.345,20.345v36.934c0,8.524-5.377,16.054-13.369,19.016c-4.379,1.624-8.676,3.413-12.888,5.358
	c-7.712,3.564-16.841,1.823-22.848-4.184L131.5,61.658c-7.945-7.945-20.828-7.945-28.773,0l-41.068,41.068
	c-7.945,7.945-7.945,20.828,0,28.773L87.67,157.51c6.006,6.006,7.747,15.137,4.184,22.848c-1.946,4.211-3.735,8.509-5.358,12.888
	c-2.964,7.992-10.493,13.369-19.016,13.369H30.545c-11.236,0-20.345,9.109-20.345,20.345v58.078
	c0,11.236,9.109,20.345,20.345,20.345h36.934c8.524,0,16.054,5.377,19.016,13.369c1.624,4.379,3.413,8.676,5.358,12.888
	c3.563,7.712,1.823,16.841-4.184,22.847L61.658,380.5c-7.945,7.945-7.945,20.828,0,28.773l41.067,41.067
	c7.945,7.945,20.828,7.945,28.773,0l26.011-26.011c6.006-6.006,15.137-7.747,22.848-4.184c4.211,1.946,8.509,3.735,12.888,5.358
	c7.992,2.964,13.369,10.493,13.369,19.016v36.934c0,11.236,9.109,20.345,20.345,20.345h58.078c11.236,0,20.345-9.109,20.345-20.345
	v-36.934c0-8.525,5.377-16.054,13.369-19.016c4.379-1.624,8.677-3.413,12.888-5.358c7.712-3.564,16.841-1.823,22.848,4.184
	L380.5,450.34c7.945,7.945,20.828,7.945,28.773,0l41.067-41.067c7.945-7.945,7.945-20.828,0-28.773l-26.011-26.011
	c-6.006-6.006-7.747-15.137-4.184-22.847c1.946-4.211,3.735-8.509,5.359-12.888c2.964-7.992,10.493-13.369,19.016-13.369h36.934
	c11.236,0,20.345-9.109,20.345-20.345v-58.078C501.801,215.724,492.692,206.615,481.455,206.615z M256,327.286
	c-39.37,0-71.286-31.916-71.286-71.286s31.915-71.286,71.286-71.286c39.37,0,71.286,31.916,71.286,71.286
	C327.286,295.37,295.37,327.286,256,327.286z"/>
<g>
	<path style="fill:#4D4D4D;" d="M285.039,512h-58.077c-16.843,0-30.545-13.703-30.545-30.545v-36.934
		c0-4.23-2.636-7.941-6.716-9.454c-4.59-1.702-9.172-3.607-13.62-5.663c-3.77-1.742-8.336-0.883-11.358,2.138l-26.011,26.011
		c-11.911,11.91-31.287,11.91-43.198,0l-41.067-41.067c-5.769-5.77-8.946-13.439-8.946-21.599s3.177-15.83,8.946-21.599
		l26.011-26.011c3.021-3.021,3.881-7.585,2.138-11.357c-2.058-4.455-3.963-9.038-5.663-13.621c-1.513-4.08-5.224-6.716-9.455-6.716
		H30.545C13.703,315.584,0,301.881,0,285.039v-58.077c0-16.843,13.703-30.545,30.545-30.545h36.934c4.23,0,7.941-2.637,9.455-6.717
		c1.699-4.582,3.604-9.165,5.662-13.618c1.744-3.774,0.884-8.338-2.137-11.359l-26.011-26.01c-5.769-5.77-8.946-13.439-8.946-21.599
		s3.177-15.829,8.946-21.599l41.067-41.067c11.911-11.91,31.287-11.91,43.198,0l26.011,26.011c3.022,3.021,7.585,3.88,11.359,2.137
		c4.447-2.055,9.03-3.96,13.62-5.663c4.08-1.513,6.716-5.223,6.716-9.454V30.545C196.416,13.703,210.119,0,226.961,0h58.077
		c16.843,0,30.545,13.703,30.545,30.545v36.934c0,4.23,2.637,7.941,6.716,9.454c4.59,1.702,9.172,3.607,13.62,5.663
		c3.771,1.744,8.336,0.883,11.357-2.137l26.012-26.012c11.91-11.909,31.288-11.909,43.198,0l41.067,41.067
		c5.769,5.77,8.946,13.439,8.946,21.599s-3.177,15.83-8.946,21.599l-26.011,26.011c-3.021,3.021-3.881,7.585-2.138,11.357
		c2.058,4.455,3.963,9.038,5.663,13.621c1.513,4.08,5.224,6.716,9.455,6.716h36.934c16.843,0,30.545,13.703,30.545,30.545v58.077
		c0,16.843-13.703,30.545-30.545,30.545h-36.934c-4.23,0-7.941,2.636-9.455,6.716c-1.699,4.584-3.604,9.165-5.662,13.619
		c-1.744,3.774-0.884,8.338,2.137,11.359l26.011,26.01c5.769,5.77,8.946,13.44,8.946,21.599s-3.177,15.829-8.946,21.599
		l-41.067,41.067c-11.911,11.91-31.287,11.91-43.198,0l-26.011-26.011c-3.021-3.021-7.586-3.881-11.359-2.137
		c-4.447,2.055-9.03,3.96-13.62,5.663c-4.08,1.513-6.716,5.223-6.716,9.454v36.934C315.584,498.297,301.881,512,285.039,512z
		 M172.024,408.127c4.285,0,8.589,0.902,12.612,2.761c3.972,1.835,8.059,3.535,12.155,5.055
		c11.976,4.441,20.023,15.925,20.023,28.579v36.934c0,5.594,4.552,10.146,10.146,10.146h58.077c5.594,0,10.146-4.552,10.146-10.146
		v-36.934c0-12.654,8.047-24.138,20.023-28.579c4.096-1.519,8.184-3.219,12.154-5.054c11.502-5.312,25.3-2.809,34.34,6.23
		l26.011,26.011c3.956,3.956,10.392,3.956,14.348,0l41.067-41.067c1.917-1.916,2.972-4.465,2.972-7.175s-1.055-5.259-2.972-7.175
		l-26.011-26.011c-9.04-9.042-11.542-22.841-6.229-34.339c1.836-3.974,3.536-8.065,5.053-12.154
		c4.441-11.977,15.926-20.023,28.579-20.023h36.934c5.594,0,10.146-4.552,10.146-10.146v-58.077c0-5.594-4.552-10.146-10.146-10.146
		H444.52c-12.652,0-24.138-8.046-28.579-20.022c-1.517-4.092-3.217-8.182-5.054-12.157c-5.313-11.496-2.81-25.295,6.23-34.337
		l26.011-26.011c1.917-1.916,2.972-4.464,2.972-7.175c0-2.71-1.055-5.258-2.972-7.174l-41.067-41.068
		c-3.955-3.955-10.393-3.956-14.348,0l-26.012,26.011c-9.04,9.04-22.839,11.543-34.338,6.23c-3.972-1.835-8.059-3.535-12.155-5.054
		c-11.976-4.441-20.023-15.925-20.023-28.579V30.545c0-5.594-4.552-10.146-10.146-10.146h-58.077
		c-5.594,0-10.146,4.552-10.146,10.146v36.934c0,12.654-8.047,24.138-20.023,28.579c-4.096,1.519-8.184,3.219-12.154,5.054
		c-11.5,5.314-25.299,2.809-34.34-6.23l-26.011-26.011c-3.956-3.956-10.392-3.956-14.348,0l-41.067,41.067
		c-1.917,1.916-2.972,4.465-2.972,7.175c0,2.71,1.055,5.259,2.972,7.175L94.882,150.3c9.04,9.042,11.542,22.841,6.229,34.339
		c-1.836,3.974-3.536,8.065-5.053,12.154c-4.441,11.977-15.927,20.023-28.579,20.023H30.545c-5.594,0-10.146,4.552-10.146,10.146
		v58.077c0,5.594,4.552,10.146,10.146,10.146h36.934c12.653,0,24.138,8.046,28.579,20.022c1.517,4.091,3.217,8.181,5.054,12.157
		c5.313,11.496,2.81,25.295-6.23,34.337l-26.011,26.011c-1.917,1.916-2.972,4.464-2.972,7.175c0,2.71,1.055,5.258,2.972,7.174
		l41.067,41.068c3.954,3.956,10.392,3.955,14.348,0l26.011-26.011C156.174,411.241,164.064,408.127,172.024,408.127z M256,337.486
		c-44.932,0-81.486-36.554-81.486-81.486s36.554-81.486,81.486-81.486c44.932,0,81.486,36.554,81.486,81.486
		S300.932,337.486,256,337.486z M256,194.913c-33.683,0-61.087,27.403-61.087,61.087s27.403,61.087,61.087,61.087
		s61.087-27.403,61.087-61.087S289.683,194.913,256,194.913z"/>
	<path style="fill:#4D4D4D;" d="M350.959,312.22c-1.495,0-3.013-0.33-4.448-1.027c-5.067-2.46-7.18-8.562-4.72-13.629
		c0.964-1.985,1.87-4.031,2.693-6.079c2.099-5.227,8.039-7.764,13.264-5.666c5.228,2.098,7.765,8.037,5.667,13.264
		c-1,2.491-2.101,4.976-3.272,7.39C358.377,310.105,354.742,312.22,350.959,312.22z"/>
	<path style="fill:#4D4D4D;" d="M256,371.703c-5.632,0-10.199-4.566-10.199-10.199s4.567-10.199,10.199-10.199
		c24.678,0,48.082-9.396,65.9-26.457c4.068-3.894,10.526-3.755,14.421,0.313c3.896,4.068,3.756,10.525-0.313,14.421
		C314.374,360.295,285.96,371.703,256,371.703z"/>
</g>
</svg>